# xmcd
#
# Track frame offsets: 
#        150
#        21311
#        38711
#        60363
#        76923
#        98173
#        112393
#        136728
#        158966
#        173403
#        184461
#        202516
#        221128
#        245013
#        266376
#
# Disc length: 3835 seconds
#
# Revision: 1
# Processed by: cddbd v1.5.2PL0 Copyright (c) Steve Scherf et al.
# Submitted via: ExactAudioCopyFreeDBPlugin 1.0
#
DISCID=c80ef90f
DTITLE=Various Artist - Even More Bay Area Blues
DYEAR=1996
DGENRE=Blues
TTITLE0=Jimmy Dillon - One Wrong Move
TTITLE1=Jack King And Way Fat - Rich Live
TTITLE2=George Whitsell - Warm Heart
TTITLE3=Paris Slim - Molly´S Backjard Blues
TTITLE4=Gary King - I Ain´T No Doctor
TTITLE5=Rhythmtown - Magnaton
TTITLE6=Goodman Murphy Band - Same Of Blues
TTITLE7=Greg Douglas - Dirtleg Blues
TTITLE8=Richi Ray - Cup Of Coffee
TTITLE9=Dan Hyes - She Says She Will
TTITLE10=Rhythm Sheiks - What I Know Now
TTITLE11=Pete Sears and Rich Kirch - Deuces Wild
TTITLE12=Little Jonny and The Giants - Stranger Blues
TTITLE13=Terry Haggerty - Red House
TTITLE14=Trichotic - Something Is Wrong
EXTD=
EXTT0=
EXTT1=
EXTT2=
EXTT3=
EXTT4=
EXTT5=
EXTT6=
EXTT7=
EXTT8=
EXTT9=
EXTT10=
EXTT11=
EXTT12=
EXTT13=
EXTT14=
PLAYORDER=
